<svg id="visual" viewBox="0 0 1500 400" width="1500" height="400" xmlns="http://www.w3.org/2000/svg" xmlns:xlink="http://www.w3.org/1999/xlink" version="1.1"><rect x="0" y="0" width="1500" height="400" fill="#faebd7"></rect><path d="M0 170L19.2 171C38.3 172 76.7 174 115.2 169.3C153.7 164.7 192.3 153.3 230.8 149.3C269.3 145.3 307.7 148.7 346.2 152C384.7 155.3 423.3 158.7 461.8 156C500.3 153.3 538.7 144.7 577 144.7C615.3 144.7 653.7 153.3 692.2 154.8C730.7 156.3 769.3 150.7 807.8 146.7C846.3 142.7 884.7 140.3 923 136.8C961.3 133.3 999.7 128.7 1038.2 130.3C1076.7 132 1115.3 140 1153.8 142.5C1192.3 145 1230.7 142 1269.2 137C1307.7 132 1346.3 125 1384.8 123.7C1423.3 122.3 1461.7 126.7 1480.8 128.8L1500 131L1500 0L1480.8 0C1461.7 0 1423.3 0 1384.8 0C1346.3 0 1307.7 0 1269.2 0C1230.7 0 1192.3 0 1153.8 0C1115.3 0 1076.7 0 1038.2 0C999.7 0 961.3 0 923 0C884.7 0 846.3 0 807.8 0C769.3 0 730.7 0 692.2 0C653.7 0 615.3 0 577 0C538.7 0 500.3 0 461.8 0C423.3 0 384.7 0 346.2 0C307.7 0 269.3 0 230.8 0C192.3 0 153.7 0 115.2 0C76.7 0 38.3 0 19.2 0L0 0Z" fill="#ecc4c4"></path><path d="M0 127L19.2 127.5C38.3 128 76.7 129 115.2 128.7C153.7 128.3 192.3 126.7 230.8 121.3C269.3 116 307.7 107 346.2 109.2C384.7 111.3 423.3 124.7 461.8 126C500.3 127.3 538.7 116.7 577 117C615.3 117.3 653.7 128.7 692.2 130.7C730.7 132.7 769.3 125.3 807.8 127.3C846.3 129.3 884.7 140.7 923 144.2C961.3 147.7 999.7 143.3 1038.2 141C1076.7 138.7 1115.3 138.3 1153.8 131.3C1192.3 124.3 1230.7 110.7 1269.2 111.2C1307.7 111.7 1346.3 126.3 1384.8 129.3C1423.3 132.3 1461.7 123.7 1480.8 119.3L1500 115L1500 0L1480.8 0C1461.7 0 1423.3 0 1384.8 0C1346.3 0 1307.7 0 1269.2 0C1230.7 0 1192.3 0 1153.8 0C1115.3 0 1076.7 0 1038.2 0C999.7 0 961.3 0 923 0C884.7 0 846.3 0 807.8 0C769.3 0 730.7 0 692.2 0C653.7 0 615.3 0 577 0C538.7 0 500.3 0 461.8 0C423.3 0 384.7 0 346.2 0C307.7 0 269.3 0 230.8 0C192.3 0 153.7 0 115.2 0C76.7 0 38.3 0 19.2 0L0 0Z" fill="#c5a1aa"></path><path d="M0 79L19.2 85.3C38.3 91.7 76.7 104.3 115.2 107.5C153.7 110.7 192.3 104.3 230.8 99.2C269.3 94 307.7 90 346.2 90.8C384.7 91.7 423.3 97.3 461.8 103.3C500.3 109.3 538.7 115.7 577 113.2C615.3 110.7 653.7 99.3 692.2 93.8C730.7 88.3 769.3 88.7 807.8 93.3C846.3 98 884.7 107 923 113.8C961.3 120.7 999.7 125.3 1038.2 127.7C1076.7 130 1115.3 130 1153.8 126.8C1192.3 123.7 1230.7 117.3 1269.2 113.7C1307.7 110 1346.3 109 1384.8 111.5C1423.3 114 1461.7 120 1480.8 123L1500 126L1500 0L1480.8 0C1461.7 0 1423.3 0 1384.8 0C1346.3 0 1307.7 0 1269.2 0C1230.7 0 1192.3 0 1153.8 0C1115.3 0 1076.7 0 1038.2 0C999.7 0 961.3 0 923 0C884.7 0 846.3 0 807.8 0C769.3 0 730.7 0 692.2 0C653.7 0 615.3 0 577 0C538.7 0 500.3 0 461.8 0C423.3 0 384.7 0 346.2 0C307.7 0 269.3 0 230.8 0C192.3 0 153.7 0 115.2 0C76.7 0 38.3 0 19.2 0L0 0Z" fill="#9d808f"></path><path d="M0 88L19.2 84.3C38.3 80.7 76.7 73.3 115.2 70.2C153.7 67 192.3 68 230.8 71.5C269.3 75 307.7 81 346.2 80.2C384.7 79.3 423.3 71.7 461.8 74.2C500.3 76.7 538.7 89.3 577 90C615.3 90.7 653.7 79.3 692.2 79.2C730.7 79 769.3 90 807.8 89.3C846.3 88.7 884.7 76.3 923 77C961.3 77.7 999.7 91.3 1038.2 93.2C1076.7 95 1115.3 85 1153.8 83C1192.3 81 1230.7 87 1269.2 85.8C1307.7 84.7 1346.3 76.3 1384.8 71.3C1423.3 66.3 1461.7 64.7 1480.8 63.8L1500 63L1500 0L1480.8 0C1461.7 0 1423.3 0 1384.8 0C1346.3 0 1307.7 0 1269.2 0C1230.7 0 1192.3 0 1153.8 0C1115.3 0 1076.7 0 1038.2 0C999.7 0 961.3 0 923 0C884.7 0 846.3 0 807.8 0C769.3 0 730.7 0 692.2 0C653.7 0 615.3 0 577 0C538.7 0 500.3 0 461.8 0C423.3 0 384.7 0 346.2 0C307.7 0 269.3 0 230.8 0C192.3 0 153.7 0 115.2 0C76.7 0 38.3 0 19.2 0L0 0Z" fill="#746175"></path><path d="M0 54L19.2 56.2C38.3 58.3 76.7 62.7 115.2 65.3C153.7 68 192.3 69 230.8 70.5C269.3 72 307.7 74 346.2 70.5C384.7 67 423.3 58 461.8 57.5C500.3 57 538.7 65 577 70.3C615.3 75.7 653.7 78.3 692.2 74.7C730.7 71 769.3 61 807.8 58.8C846.3 56.7 884.7 62.3 923 62C961.3 61.7 999.7 55.3 1038.2 57.3C1076.7 59.3 1115.3 69.7 1153.8 73.3C1192.3 77 1230.7 74 1269.2 73.8C1307.7 73.7 1346.3 76.3 1384.8 75.3C1423.3 74.3 1461.7 69.7 1480.8 67.3L1500 65L1500 0L1480.8 0C1461.7 0 1423.3 0 1384.8 0C1346.3 0 1307.7 0 1269.2 0C1230.7 0 1192.3 0 1153.8 0C1115.3 0 1076.7 0 1038.2 0C999.7 0 961.3 0 923 0C884.7 0 846.3 0 807.8 0C769.3 0 730.7 0 692.2 0C653.7 0 615.3 0 577 0C538.7 0 500.3 0 461.8 0C423.3 0 384.7 0 346.2 0C307.7 0 269.3 0 230.8 0C192.3 0 153.7 0 115.2 0C76.7 0 38.3 0 19.2 0L0 0Z" fill="#4c455a"></path><path d="M0 37L19.2 36C38.3 35 76.7 33 115.2 35.8C153.7 38.7 192.3 46.3 230.8 50.2C269.3 54 307.7 54 346.2 55C384.7 56 423.3 58 461.8 57.2C500.3 56.3 538.7 52.7 577 48.2C615.3 43.7 653.7 38.3 692.2 37.3C730.7 36.3 769.3 39.7 807.8 44.3C846.3 49 884.7 55 923 56.7C961.3 58.3 999.7 55.7 1038.2 54.7C1076.7 53.7 1115.3 54.3 1153.8 50.8C1192.3 47.3 1230.7 39.7 1269.2 39.7C1307.7 39.7 1346.3 47.3 1384.8 48.7C1423.3 50 1461.7 45 1480.8 42.5L1500 40L1500 0L1480.8 0C1461.7 0 1423.3 0 1384.8 0C1346.3 0 1307.7 0 1269.2 0C1230.7 0 1192.3 0 1153.8 0C1115.3 0 1076.7 0 1038.2 0C999.7 0 961.3 0 923 0C884.7 0 846.3 0 807.8 0C769.3 0 730.7 0 692.2 0C653.7 0 615.3 0 577 0C538.7 0 500.3 0 461.8 0C423.3 0 384.7 0 346.2 0C307.7 0 269.3 0 230.8 0C192.3 0 153.7 0 115.2 0C76.7 0 38.3 0 19.2 0L0 0Z" fill="#272a3e"></path><path d="M0 25L19.2 26.8C38.3 28.7 76.7 32.3 115.2 29.8C153.7 27.3 192.3 18.7 230.8 15.8C269.3 13 307.7 16 346.2 20.2C384.7 24.3 423.3 29.7 461.8 31.7C500.3 33.7 538.7 32.3 577 31C615.3 29.7 653.7 28.3 692.2 27.7C730.7 27 769.3 27 807.8 26.3C846.3 25.7 884.7 24.3 923 22.3C961.3 20.3 999.7 17.7 1038.2 16C1076.7 14.3 1115.3 13.7 1153.8 16C1192.3 18.3 1230.7 23.7 1269.2 25C1307.7 26.3 1346.3 23.7 1384.8 25C1423.3 26.3 1461.7 31.7 1480.8 34.3L1500 37L1500 0L1480.8 0C1461.7 0 1423.3 0 1384.8 0C1346.3 0 1307.7 0 1269.2 0C1230.7 0 1192.3 0 1153.8 0C1115.3 0 1076.7 0 1038.2 0C999.7 0 961.3 0 923 0C884.7 0 846.3 0 807.8 0C769.3 0 730.7 0 692.2 0C653.7 0 615.3 0 577 0C538.7 0 500.3 0 461.8 0C423.3 0 384.7 0 346.2 0C307.7 0 269.3 0 230.8 0C192.3 0 153.7 0 115.2 0C76.7 0 38.3 0 19.2 0L0 0Z" fill="#001122"></path></svg>